<svg xmlns="http://www.w3.org/2000/svg" viewBox="0 0 300 80" width="100%" height="100%">
  <defs>
    <linearGradient id="vibrantGreen" x1="0%" y1="0%" x2="100%" y2="100%">
      <stop offset="0%" stop-color="#10b461" />
      <stop offset="100%" stop-color="#0e9952" />
    </linearGradient>
  </defs>

  <!-- Elegant Car Profile -->
  <g transform="translate(10, 18)">
    <path d="M 10 32 L 8 26 C 6 20, 10 18, 16 16 L 24 14 C 30 12, 38 4, 46 4 C 54 4, 64 6, 72 14 L 84 18 C 90 20, 94 24, 94 30 L 94 34 C 94 36, 92 38, 90 38 L 86 38 C 84 34, 80 32, 76 32 C 72 32, 68 34, 66 38 L 38 38 C 36 34, 32 32, 28 32 C 24 32, 20 34, 18 38 L 12 38 C 10 38, 10 36, 10 32 Z" fill="#111827" />
    <path d="M 46 6.5 C 38 6.5, 30 11, 26 15 L 46 15 Z M 49 6.5 L 49 15 L 68 15 C 64 10, 56 6.5, 49 6.5 Z" fill="url(#vibrantGreen)" />
    <!-- Wheels -->
    <circle cx="28" cy="38" r="7" fill="#111827" stroke="url(#vibrantGreen)" stroke-width="2.5" />
    <circle cx="76" cy="38" r="7" fill="#111827" stroke="url(#vibrantGreen)" stroke-width="2.5" />
    <circle cx="28" cy="38" r="2.5" fill="url(#vibrantGreen)" />
    <circle cx="76" cy="38" r="2.5" fill="url(#vibrantGreen)" />
  </g>

  <!-- "Driver" Text -->
  <text x="120" y="52" text-anchor="start" font-family="'Plus Jakarta Sans', 'Inter', system-ui, -apple-system, sans-serif" font-size="40" font-weight="900" letter-spacing="-0.03em" fill="#111827">
    Driver
  </text>
</svg>